<svg width="49" height="49" viewBox="0 0 49 49" fill="none" xmlns="http://www.w3.org/2000/svg">
<path d="M32.9013 1.48547C32.4316 1.3141 31.9132 1.33632 31.4599 1.54722C31.0067 1.75813 30.6558 2.14045 30.4844 2.61008C30.313 3.07971 30.3352 3.59818 30.5461 4.05143C30.757 4.50468 31.1394 4.85559 31.609 5.02696C36.4803 6.80515 40.5084 10.344 42.8992 14.9457C45.2899 19.5474 45.8696 24.8778 44.5241 29.8859C43.1785 34.8939 40.0053 39.216 35.6302 41.9999C31.2551 44.7837 25.9957 45.8272 20.8893 44.9245C15.7828 44.0219 11.1998 41.2387 8.04419 37.1237C4.88857 33.0087 3.38933 27.8607 3.84214 22.6948C4.29494 17.529 6.66692 12.7203 10.4903 9.217C14.3137 5.71375 19.311 3.77024 24.4966 3.76975C24.9965 3.76975 25.4759 3.57116 25.8294 3.21768C26.1829 2.8642 26.3815 2.38477 26.3815 1.88487C26.3815 1.38497 26.1829 0.905549 25.8294 0.552066C25.4759 0.198584 24.9965 0 24.4966 0C18.3696 0.000846757 12.4653 2.29739 7.94803 6.43674C3.43074 10.5761 0.628378 16.2578 0.0935637 22.3614C-0.441251 28.465 1.33031 34.5475 5.05888 39.4094C8.78745 44.2712 14.2024 47.5596 20.2359 48.626C26.2694 49.6924 32.4834 48.4594 37.6527 45.1701C42.8219 41.8809 46.5711 36.7741 48.1609 30.857C49.7506 24.9398 49.0656 18.6418 46.2409 13.2048C43.4162 7.76775 38.6568 3.58647 32.9013 1.48547Z" fill="black"/>
<path d="M24.4967 11.3092C23.9968 11.3092 23.5174 11.5078 23.1639 11.8613C22.8104 12.2148 22.6118 12.6942 22.6118 13.1941V24.5033C22.6118 24.7508 22.6606 24.9959 22.7553 25.2246C22.8501 25.4532 22.989 25.661 23.1641 25.8359L31.1618 33.8334C31.5177 34.1746 31.9931 34.3628 32.4861 34.3576C32.9791 34.3524 33.4504 34.1543 33.799 33.8057C34.1477 33.457 34.3458 32.9857 34.351 32.4927C34.3562 31.9997 34.168 31.5243 33.8268 31.1684L26.3816 23.7228V13.1941C26.3816 12.6942 26.183 12.2148 25.8295 11.8613C25.476 11.5078 24.9966 11.3092 24.4967 11.3092Z" fill="black"/>
</svg>
