<svg width="33" height="34" viewBox="0 0 33 34" fill="none" xmlns="http://www.w3.org/2000/svg">
    <path
        d="M32.8065 30.949L17.8085 0.859374C17.6777 0.598488 17.488 0.381489 17.2588 0.230517C17.0296 0.0795437 16.769 0 16.5037 0C16.2384 0 15.9778 0.0795437 15.7486 0.230517C15.5194 0.381489 15.3297 0.598488 15.1989 0.859374L0.200934 30.949C0.0693 31.2067 0 31.499 0 31.7966C0 32.0942 0.0693 32.3865 0.200934 32.6442C0.331799 32.9004 0.519707 33.1134 0.745983 33.2621C0.972259 33.4108 1.22902 33.49 1.49076 33.4918H31.5017C31.7634 33.49 32.0202 33.4108 32.2464 33.2621C32.4727 33.1134 32.6606 32.9004 32.7915 32.6442C32.9254 32.388 32.9973 32.0964 32.9999 31.7989C33.0026 31.5013 32.9358 31.2082 32.8065 30.949ZM18.0035 27.1179H15.0039V23.7275H18.0035V27.1179ZM18.0035 20.3371H15.0039V11.8612H18.0035V20.3371Z"
        fill="black" />
</svg>