<svg width="34" height="36" viewBox="0 0 34 36" fill="none" xmlns="http://www.w3.org/2000/svg">
    <path
        d="M16.6535 0.504028C13.3597 0.504028 10.1399 1.5315 7.4013 3.45651C4.66265 5.38152 2.52814 8.11762 1.26768 11.3188C0.00721574 14.52 -0.322578 18.0425 0.319999 21.4408C0.962577 24.8392 2.54867 27.9608 4.87769 30.4108C7.20672 32.8609 10.1741 34.5294 13.4045 35.2054C16.635 35.8814 19.9835 35.5344 23.0265 34.2085C26.0695 32.8825 28.6704 30.637 30.5003 27.7561C32.3302 24.8751 33.3069 21.488 33.3069 18.023C33.3054 13.3772 31.5504 8.92209 28.4276 5.63698C25.3048 2.35188 21.0698 0.505619 16.6535 0.504028V0.504028ZM18.3189 26.782H14.9918V16.271H18.3189V26.782ZM18.3189 12.767H14.9918V9.26703H18.3189V12.767Z"
        fill="black" />
</svg>