<svg width="78" height="78" viewBox="0 0 78 78" fill="none" xmlns="http://www.w3.org/2000/svg">
    <g clip-path="url(#clip0_1558_2583)">
        <path
            d="M71.0821 44.6065L67.4913 44.6596L67.3807 37.1841C67.3087 32.3212 63.2259 28.4246 58.2795 28.4978C53.3331 28.571 49.3674 32.5868 49.4394 37.4496L49.55 44.9252L45.9643 44.9782C44.3128 45.0027 42.9939 46.3612 43.0183 48.0127L43.2972 66.8536C41.1424 68.4616 38.7614 69.9045 36.1829 71.1554C18.7632 63.3279 10.2082 46.9009 9.41305 19.7128C23.262 18.6951 31.5062 12.255 35.2541 8.40991C39.1142 12.1425 47.5453 18.3356 61.4185 18.9431C61.419 19.8497 61.4107 20.7438 61.3935 21.6194C61.3611 23.2708 62.6735 24.6356 64.3248 24.6679C65.9765 24.6982 67.341 23.3879 67.3733 21.7366C67.4101 19.8631 67.4081 17.9108 67.3676 15.9343C67.334 14.2896 65.9783 12.9809 64.3334 13.0052C56.6167 13.1194 49.7829 11.332 44.0218 7.69243C39.7992 5.02486 37.7223 2.27753 37.6169 2.13568C37.0483 1.32564 36.1324 0.848994 35.1424 0.863648C34.1523 0.878302 33.251 1.38185 32.7066 2.20836C32.6054 2.35312 30.6108 5.16086 26.4689 7.95223C20.8181 11.7607 14.0402 13.7496 6.32335 13.8638C4.67858 13.8882 3.36221 15.2363 3.37714 16.8813C3.52313 32.8981 6.06692 45.4807 11.1539 55.3482C13.7533 60.3905 17.0822 64.7806 21.0482 68.3966C24.9974 71.9974 29.7182 74.9574 35.0796 77.1948C35.4622 77.3545 35.8695 77.4312 36.2756 77.4252C36.6815 77.4191 37.0865 77.3305 37.4643 77.1596C41.4973 75.3344 45.1577 73.0969 48.3432 70.5087C48.4001 70.4624 48.4523 70.4126 48.505 70.3632L71.4585 70.0235C73.11 69.999 74.4289 68.6405 74.4044 66.989L74.1167 47.5526C74.0921 45.9011 72.7336 44.582 71.0821 44.6065ZM55.42 37.3611C55.3968 35.7959 56.7193 34.5026 58.3682 34.4782C60.017 34.4538 61.3772 35.7074 61.4004 37.2726L61.511 44.7481L55.5306 44.8367L55.42 37.3611ZM68.3796 64.0871L49.2422 64.3704L49.043 50.9144L68.1804 50.6312L68.3796 64.0871Z"
            fill="#454347" />
    </g>
    <defs>
        <clipPath id="clip0_1558_2583">
            <rect width="76.5699" height="76.5699" fill="white" transform="translate(0 1.38379) rotate(-0.847975)" />
        </clipPath>
    </defs>
</svg>