<svg width="49" height="49" viewBox="0 0 49 49" fill="none" xmlns="http://www.w3.org/2000/svg">
<path d="M48.4477 11.8601L37.1399 0.552264C36.965 0.377185 36.7573 0.238296 36.5287 0.143535C36.3 0.0487742 36.055 0 35.8075 0C35.56 0 35.3149 0.0487742 35.0863 0.143535C34.8577 0.238296 34.65 0.377185 34.4751 0.552264L28.8211 6.20617C28.6461 6.38109 28.5072 6.5888 28.4124 6.81743C28.3177 7.04606 28.2689 7.29112 28.2689 7.53861C28.2689 7.7861 28.3177 8.03116 28.4124 8.25978C28.5072 8.48841 28.6461 8.69612 28.8211 8.87104L38.7963 18.8464L14.5335 43.1092L4.17351 44.8265L5.89079 34.4665L25.8321 14.525C26.1754 14.1695 26.3654 13.6934 26.3611 13.1993C26.3568 12.7052 26.1586 12.2325 25.8092 11.883C25.4597 11.5336 24.987 11.3354 24.4929 11.3311C23.9987 11.3268 23.5227 11.5168 23.1672 11.8601L2.79791 32.2285C2.51948 32.5066 2.33537 32.8652 2.27153 33.2535L0.0252362 46.8086C-0.0193637 47.0784 -0.00471973 47.3546 0.0681519 47.6182C0.141024 47.8817 0.270377 48.1263 0.447235 48.3349C0.624092 48.5434 0.844216 48.711 1.09233 48.8259C1.34044 48.9409 1.6106 49.0005 1.88405 49.0006C1.98735 49.0002 2.09045 48.9916 2.19238 48.9748L15.7465 46.7275C16.1345 46.6634 16.4926 46.4793 16.7706 46.2011L42.7938 20.1789L48.4477 14.525C48.6228 14.35 48.7617 14.1423 48.8565 13.9137C48.9512 13.6851 49 13.44 49 13.1925C49 12.945 48.9512 12.7 48.8565 12.4713C48.7617 12.2427 48.6228 12.035 48.4477 11.8601ZM41.4614 16.1814L32.8186 7.53861L35.8075 4.54976L44.4502 13.1925L41.4614 16.1814Z" fill="black"/>
</svg>
