<svg width="138" height="138" viewBox="0 0 138 138" fill="none" xmlns="http://www.w3.org/2000/svg">
    <g clip-path="url(#clip0_1559_3037)">
        <path
            d="M111.723 89.1964L106.65 87.8371L109.48 77.2759C111.321 70.4059 107.133 63.2933 100.145 61.4208C93.1565 59.5483 85.9736 63.6142 84.1328 70.4842L81.3029 81.0455L76.2371 79.6881C73.9039 79.0629 71.5058 80.4474 70.8807 82.7806L63.7484 109.398C60.0748 110.8 56.1488 111.879 52.0216 112.609C30.6407 94.64 25.1654 68.113 34.905 29.5456C54.795 33.6447 68.9653 27.8769 75.7738 23.9642C79.7137 30.7571 89.1017 42.8371 108.377 49.2323C108.015 50.508 107.647 51.7626 107.273 52.9875C106.568 55.2979 107.869 57.742 110.179 58.4471C112.491 59.1493 114.934 57.8508 115.639 55.5406C116.439 52.9194 117.216 50.1721 117.948 47.3753C118.557 45.0481 117.173 42.6654 114.849 42.0427C103.947 39.1215 95.0467 33.8776 88.3953 26.4564C83.5199 21.0171 81.6953 16.3226 81.6036 16.0809C81.1272 14.7142 80.0291 13.6779 78.6304 13.3031C77.2317 12.9283 75.7625 13.2768 74.6666 14.2221C74.4664 14.3854 70.5389 17.5389 63.5971 19.8118C54.1262 22.913 43.7963 23.0042 32.8942 20.083C30.5705 19.4603 28.1801 20.8313 27.5442 23.1514C21.3529 45.7431 19.9065 64.461 23.1223 80.3749C24.7655 88.5067 27.6955 96.0124 31.831 102.684C35.949 109.327 41.4083 115.376 48.0574 120.665C48.5319 121.043 49.0743 121.313 49.648 121.467C50.2215 121.621 50.8267 121.657 51.4264 121.568C57.8293 120.611 63.8724 118.925 69.3877 116.556C69.4862 116.513 69.5796 116.464 69.6734 116.416L102.101 125.105C104.435 125.73 106.833 124.345 107.458 122.012L114.815 94.5531C115.44 92.2199 114.056 89.8216 111.723 89.1964ZM92.5819 72.7482C93.1745 70.5369 95.5516 69.2457 97.881 69.8698C100.21 70.494 101.623 72.8008 101.031 75.0121L98.2011 85.5733L89.7521 83.3094L92.5819 72.7482ZM100.141 115.524L73.1039 108.279L78.1977 89.269L105.234 96.5135L100.141 115.524Z"
            fill="white" />
    </g>
    <defs>
        <clipPath id="clip0_1559_3037">
            <rect width="111.979" height="111.979" fill="white" transform="translate(28.9824) rotate(15)" />
        </clipPath>
    </defs>
</svg>