<svg width="40" height="39" viewBox="0 0 40 39" fill="none" xmlns="http://www.w3.org/2000/svg">
<path d="M38.4615 16.9231H27.6923C26.0602 16.9231 24.495 17.5714 23.3409 18.7255C22.1868 19.8796 21.5385 21.4448 21.5385 23.0769C21.5385 24.709 22.1868 26.2743 23.3409 27.4283C24.495 28.5824 26.0602 29.2308 27.6923 29.2308H33.8462V33.8462C33.8456 34.254 33.6834 34.645 33.395 34.9334C33.1066 35.2218 32.7156 35.3841 32.3077 35.3846H7.69231C6.46833 35.3843 5.29458 34.8979 4.4291 34.0324C3.56362 33.167 3.07725 31.9932 3.07692 30.7692V7.69231C3.07725 6.46833 3.56362 5.29458 4.4291 4.4291C5.29458 3.56362 6.46833 3.07725 7.69231 3.07692H29.2308C29.6388 3.07692 30.0301 3.23901 30.3186 3.52753C30.6071 3.81605 30.7692 4.20736 30.7692 4.61538V6.15385H7.69231C7.28428 6.15385 6.89297 6.31593 6.60445 6.60445C6.31593 6.89297 6.15385 7.28428 6.15385 7.69231C6.15385 8.10033 6.31593 8.49165 6.60445 8.78016C6.89297 9.06868 7.28428 9.23077 7.69231 9.23077H32.3077C32.7156 9.2313 33.1066 9.39355 33.395 9.68196C33.6834 9.97036 33.8456 10.3614 33.8462 10.7692V12.34C33.8462 12.748 34.0082 13.1393 34.2968 13.4279C34.5853 13.7164 34.9766 13.8785 35.3846 13.8785C35.7926 13.8785 36.184 13.7164 36.4725 13.4279C36.761 13.1393 36.9231 12.748 36.9231 12.34V10.7692C36.9919 9.80007 36.723 8.83698 36.1621 8.04365C35.6012 7.25033 34.7828 6.67573 33.8462 6.41754V4.61538C33.8458 3.39141 33.3595 2.21766 32.494 1.35218C31.6285 0.486693 30.4547 0.000326263 29.2308 0H7.69231C5.65234 0.000530184 3.69608 0.811138 2.25361 2.25361C0.811138 3.69608 0.000530184 5.65234 0 7.69231V30.7692C0.000530184 32.8092 0.811138 34.7655 2.25361 36.2079C3.69608 37.6504 5.65234 38.461 7.69231 38.4615H32.3077C33.5314 38.4602 34.7045 37.9735 35.5698 37.1082C36.435 36.243 36.9217 35.0698 36.9231 33.8462V29.2308H38.4615C38.8696 29.2308 39.2609 29.0687 39.5494 28.7802C39.8379 28.4916 40 28.1003 40 27.6923V18.4615C40 18.0535 39.8379 17.6622 39.5494 17.3737C39.2609 17.0852 38.8696 16.9231 38.4615 16.9231ZM36.9231 26.1538H27.6923C26.8763 26.1538 26.0936 25.8297 25.5166 25.2526C24.9396 24.6756 24.6154 23.893 24.6154 23.0769C24.6154 22.2609 24.9396 21.4782 25.5166 20.9012C26.0936 20.3242 26.8763 20 27.6923 20H36.9231V26.1538Z" fill="black"/>
</svg>
