<?xml version="1.0" encoding="UTF-8"?>
<svg id="Layer_1" data-name="Layer 1" xmlns="http://www.w3.org/2000/svg" viewBox="0 0 189.75 151.18">
    <defs>
        <style>
            .cls-1 {
                fill: #f3ba0e;
            }

            .cls-1,
            .cls-2,
            .cls-3 {
                stroke-width: 0px;
            }

            .cls-2 {
                fill: #000;
            }

            .cls-3 {
                fill: #231f20;
            }
        </style>
    </defs>
    <path class="cls-2"
        d="M47.32,104.32c-1.35,0-2.7-.77-4.02-2.29l-19.63-22.56c-1.92-2.2-6.16-4.13-9.07-4.13h-5.78c-4.62,0-8.38-3.76-8.38-8.38v-25.02c0-4.14,2.61-9.32,5.94-11.79L40.2,2.3c1.79-1.33,4.03-2.02,6.4-2.02s4.61.7,6.32,1.96l33.99,27.96c3.25,2.4,5.86,7.58,5.86,11.73v25.02c0,4.62-3.76,8.38-8.38,8.38h-29.01c-2.42,0-4.39,1.97-4.39,4.39v19.43c0,4.92-3.06,5.17-3.67,5.17h0Z" />
    <path class="cls-1" d="M62.34,71.34v-13.63c0-7.04-5.71-12.74-12.74-12.74h-5.99c-7.04,0-12.74,5.7-12.74,12.74v23.94l15.45,17.75c.24.28.46.48.63.62.04-.22.06-.51.06-.88v-19.43c0-4.62,3.76-8.38,8.38-8.38h6.96Z" />
    <path class="cls-1" d="M69,50.49h-4.31c1.05,2.19,1.66,4.63,1.66,7.22v13.63h12.88v-10.61c0-5.65-4.58-10.24-10.24-10.24h0Z" />
    <path class="cls-1" d="M28.5,50.49h-4.31c-5.65,0-10.24,4.58-10.24,10.24v10.61h.63c4.09,0,9.4,2.42,12.08,5.5l.17.2v-19.33c0-2.59.61-5.03,1.66-7.22h0Z" />
    <path class="cls-1" d="M77.15,37.46c0-4.09-3.32-7.4-7.4-7.4s-7.4,3.32-7.4,7.4,3.31,7.4,7.4,7.4,7.4-3.31,7.4-7.4h0Z" />
    <path class="cls-1" d="M16.04,37.46c0,4.09,3.32,7.4,7.4,7.4s7.4-3.31,7.4-7.4-3.31-7.4-7.4-7.4-7.4,3.32-7.4,7.4h0Z" />
    <path class="cls-1" d="M46.6,39.34c5.61,0,10.16-4.55,10.16-10.16s-4.55-10.16-10.16-10.16-10.16,4.55-10.16,10.16,4.55,10.16,10.16,10.16h0Z" />
    <path class="cls-3"
        d="M62.66,142.5c-.6,0-1.17-.07-1.52-.17-.32-.1-.35-.3-.35-.67v-1.39l-3.21.2v4.26c1.62.72,3.69,1,5.38,1,4.01,0,6.5-2.02,6.5-5.48s-2.42-4.21-4.68-4.93c-1.64-.52-2.64-.9-2.64-2.07,0-1.1.87-1.49,1.84-1.49.5,0,1.05.05,1.4.15.32.1.35.3.35.65v1.25l3.14-.2v-4.06c-1.17-.57-2.99-1-4.98-1-3.66,0-6.18,1.89-6.18,5.21s2.57,4.38,4.73,4.96c1.52.4,2.49.82,2.49,1.99,0,1.37-1.07,1.82-2.27,1.82h0ZM82.56,133.26c-1.99-.77-3.91-.95-4.81-.95-4.61,0-6.88,2.89-6.88,7.27,0,3.31,1.2,6.13,4.98,6.13,1.45,0,2.57-.57,3.19-1.52l.08.02.17,1.17h4.48v-2.27l-.65-.05c-.45-.02-.57-.2-.57-.72v-9.09h0ZM78.45,141.28c0,.77-.55,1.47-1.57,1.47-1.5,0-1.84-1.57-1.84-3.46,0-2.09.47-4.01,2.27-4.01.45,0,.87.08,1.15.2v5.8h0ZM84.76,135.36h1.64v6.9c0,.62-.12.77-.6.82l-.8.08v2.24h7.5v-2.32l-1.94-.12v-7.6h3.16v-2.69h-3.16v-.7c0-1.17.52-1.57,1.4-1.57.5,0,1.25.15,2.04.52l.95-2.62c-1.05-.55-2.62-.95-4.04-.95-3.76,0-4.51,2.24-4.51,4.71v.6h-1.64v2.69h0ZM100.8,132.32c-4.31,0-6.53,3.26-6.53,7s1.69,6.4,6.05,6.4c2.81,0,4.71-1.2,4.83-1.32l-1.1-2.76c-.8.52-1.89,1-3.16,1-1.62,0-2.37-.95-2.49-2.12,3.76.05,6.8-.85,6.8-4.38,0-2.62-1.79-3.81-4.41-3.81h0ZM101.65,136.35c0,1.2-1.05,1.79-3.29,1.72.08-1.62.92-2.79,2.22-2.79.62,0,1.07.3,1.07,1.07h0ZM106.05,135.41h1.67v5.78c0,2.29.05,4.53,4.38,4.53,1.39,0,2.64-.35,3.34-.77l-.57-2.79c-.4.22-.95.37-1.54.37-1.17,0-1.42-.4-1.42-1.77v-5.36h2.72l.2-2.74h-2.92v-2.91h-2.29c-.52,1.54-1.39,2.81-3.24,3.24l-.32,2.42h0ZM128.25,135.83c.17-.5.32-.72.87-.77l.55-.05v-2.34h-5.88v2.42l.92.08-1.77,5.83h-.08l-1.5-5.13c-.12-.45.05-.7.4-.75l.55-.05v-2.39h-6.65v2.34l1.17.15,3.79,10.16-.32.8c-.37.92-.85,1.42-1.82,1.42-.82,0-1.47-.25-2.04-.52l-.95,2.94c.82.5,2.17.95,3.51.95,3.06,0,4.38-1.72,5.75-5.48l3.49-9.59h0Z" />
    <path class="cls-3"
        d="M67.3,109.54c.32.1.35.3.35.67v1.47l3.14-.2v-4.38c-1.25-.62-3.24-1.05-5.18-1.05-3.99,0-8.02,2.19-8.02,8.74,0,5.56,2.96,8.47,8.12,8.47,1.99,0,3.81-.32,5.16-1.02v-4.56l-3.14-.2v1.62c0,.4-.1.6-.42.67-.37.12-.9.15-1.35.15-2.91,0-3.98-2.37-3.98-5.4,0-3.46,1.39-5.16,3.89-5.16.4,0,.97.05,1.45.17h0ZM72.28,116.67c0,4.56,2.12,6.6,5.85,6.6s6.28-2.14,6.28-7c0-5.85-3.94-6.4-5.9-6.4-2.72,0-6.23,1.44-6.23,6.8h0ZM78.33,120.23c-1.54,0-1.77-1.79-1.77-4.04s.47-3.31,1.77-3.31c1.37,0,1.77,1.15,1.77,3.76,0,2.39-.5,3.59-1.77,3.59h0ZM100.72,119.9c0,.52-.1.67-.42.7l-.5.05v2.29h6.3v-2.29l-1.22-.1v-6.43c0-2.86-1.27-4.26-3.64-4.26-1.74,0-2.94.82-3.61,2.02-.72-1.67-2.17-2.02-3.21-2.02-2.04,0-3.09,1-3.66,1.99h-.05v-1.64h-5.21v2.34l.85.08c.45.05.6.22.6.75v6.45c0,.6-.1.75-.57.8l-.85.08v2.24h6.6v-2.29l-1.07-.12v-5.46c0-1.12.6-1.94,1.52-1.94,1.07,0,1.25.7,1.25,1.82v4.96c0,.52-.1.67-.42.7l-.5.05v2.29h6.03v-2.29l-.95-.1v-5.5c0-1.12.6-1.92,1.5-1.92,1.05,0,1.25.65,1.25,1.79v4.98h0ZM122.15,119.9c0,.52-.1.67-.42.7l-.5.05v2.29h6.3v-2.29l-1.22-.1v-6.43c0-2.86-1.27-4.26-3.64-4.26-1.74,0-2.94.82-3.61,2.02-.72-1.67-2.17-2.02-3.21-2.02-2.04,0-3.09,1-3.66,1.99h-.05v-1.64h-5.21v2.34l.85.08c.45.05.6.22.6.75v6.45c0,.6-.1.75-.57.8l-.85.08v2.24h6.6v-2.29l-1.07-.12v-5.46c0-1.12.6-1.94,1.52-1.94,1.07,0,1.25.7,1.25,1.82v4.96c0,.52-.1.67-.42.7l-.5.05v2.29h6.03v-2.29l-.95-.1v-5.5c0-1.12.6-1.92,1.49-1.92,1.05,0,1.25.65,1.25,1.79v4.98h0ZM140.9,110.21h-5.26v2.37l.55.05c.45.05.6.22.6.75v4.66c0,1.2-.67,1.99-1.69,1.99-1.07,0-1.32-.6-1.32-1.79v-8.02h-5.43v2.37l.67.05c.4.05.6.2.6.72v5.7c0,2.86,1.25,4.21,3.79,4.21,1.72,0,2.96-.77,3.64-1.92h.08v1.59h5.01v-2.27l-.67-.07c-.42-.05-.55-.22-.55-.77v-9.61h0ZM144.54,119.86c0,.57-.1.75-.57.77l-.85.08v2.24h6.6v-2.32l-1.05-.08v-5.45c0-1.1.6-1.97,1.64-1.97s1.34.65,1.34,1.82v5.16c-.03.37-.15.47-.42.5l-.5.05v2.29h6.3v-2.29l-1.22-.1v-6.45c0-3.06-1.44-4.23-3.76-4.23-1.94,0-3.09,1-3.69,1.97h-.05v-1.62h-5.23v2.34l.85.08c.45.05.6.22.6.75v6.48h0ZM163.45,110.21h-5.56v2.34l.85.08c.45.05.6.22.6.75v6.43c0,.62-.1.77-.57.82l-.87.08v2.24h6.87v-2.32l-1.32-.1v-10.31h0ZM158.66,106.6c0,1.25.92,2.17,2.39,2.17s2.44-.92,2.44-2.24-1-2.12-2.44-2.12-2.39.97-2.39,2.19h0ZM165.29,112.96h1.67v5.78c0,2.29.05,4.53,4.38,4.53,1.39,0,2.64-.35,3.34-.77l-.57-2.79c-.4.22-.95.37-1.54.37-1.17,0-1.42-.4-1.42-1.77v-5.35h2.72l.2-2.74h-2.92v-2.91h-2.29c-.52,1.54-1.39,2.81-3.24,3.24l-.32,2.42h0ZM187.49,113.38c.17-.5.32-.72.87-.77l.55-.05v-2.34h-5.88v2.42l.92.07-1.77,5.83h-.08l-1.49-5.13c-.12-.45.05-.7.4-.75l.55-.05v-2.39h-6.65v2.34l1.17.15,3.79,10.16-.32.8c-.37.92-.85,1.42-1.82,1.42-.82,0-1.47-.25-2.04-.52l-.95,2.94c.82.5,2.17.95,3.51.95,3.06,0,4.38-1.72,5.75-5.48l3.49-9.59h0Z" />
    <path class="cls-3"
        d="M62.89,97.75c0,.57-.15.75-.7.77l-1.12.1v1.87h6.63v-1.97l-1.77-.07v-12.31h2.24c.52,0,.62.25.62.67v1.47l2.42-.2v-4.16h-13.63v4.16l2.39.2v-1.5c0-.42.12-.65.62-.65h2.29v11.61h0ZM76.61,87.62c-3.99,0-6.15,3.09-6.15,6.95,0,3.54,1.57,6.28,5.78,6.28,2.29,0,3.94-.97,4.33-1.27l-.87-2.07c-.62.42-1.69,1.02-3.14,1.02-2.17,0-2.99-1.44-3.11-3.11,4.23.15,7.25-.72,7.25-4.29,0-2.34-1.57-3.51-4.09-3.51h0ZM78.03,91.28c0,1.49-1.42,2.04-3.59,2.04-.32,0-.65,0-1-.03.17-1.62,1.05-3.49,3.04-3.49.92,0,1.54.42,1.54,1.47h0ZM88.82,90.08c.32,0,.52.03.7.12.2.08.22.22.22.65v1.57l2.49-.17v-4.16c-.7-.35-1.57-.47-2.29-.47-1.99,0-3.09,1.15-3.54,2.22h-.03v-1.89h-4.09v1.89l.85.05c.42.05.57.2.57.7v7.22c0,.57-.07.77-.62.82l-.75.08v1.79h6.28v-1.87l-1.99-.1v-5.88c0-1.44.85-2.57,2.19-2.57h0ZM100.2,90.08c.32,0,.52.03.7.12.2.08.22.22.22.65v1.57l2.49-.17v-4.16c-.7-.35-1.57-.47-2.29-.47-1.99,0-3.09,1.15-3.54,2.22h-.03v-1.89h-4.09v1.89l.85.05c.42.05.57.2.57.7v7.22c0,.57-.07.77-.62.82l-.75.08v1.79h6.28v-1.87l-1.99-.1v-5.88c0-1.44.85-2.57,2.19-2.57h0ZM109.49,87.94h-4.36v1.89l.8.05c.47.05.62.2.62.75v7.17c0,.62-.1.77-.57.82l-.8.08v1.79h5.63v-1.87l-1.32-.1v-10.59h0ZM106.08,84.38c0,1,.7,1.72,1.77,1.72s1.84-.72,1.84-1.74-.77-1.67-1.82-1.67-1.79.75-1.79,1.69h0ZM111.86,90.11h1.72v6.53c0,2.02.15,4.21,3.84,4.21,1.2,0,2.37-.35,3.06-.8l-.57-2.04c-.4.22-1.02.47-1.74.47-1.05,0-1.62-.45-1.62-1.97v-6.4h3.09l.15-2.17h-3.24v-2.84h-1.62c-.45,1.47-1.07,2.79-2.79,3.06l-.27,1.94h0ZM121.27,94.22c0,4.51,2.07,6.63,5.48,6.63s5.9-2.09,5.9-6.95c0-5.73-3.66-6.28-5.51-6.28-2.59,0-5.88,1.34-5.88,6.6h0ZM126.93,98.58c-2.24,0-2.57-2.42-2.57-4.71s.75-4.01,2.64-4.01,2.54,1.69,2.54,4.43c0,2.49-.75,4.28-2.62,4.28h0ZM140.83,90.08c.32,0,.52.03.7.12.2.08.22.22.22.65v1.57l2.49-.17v-4.16c-.7-.35-1.57-.47-2.29-.47-1.99,0-3.09,1.15-3.54,2.22h-.02v-1.89h-4.09v1.89l.85.05c.42.05.57.2.57.7v7.22c0,.57-.07.77-.62.82l-.75.08v1.79h6.28v-1.87l-1.99-.1v-5.88c0-1.44.85-2.57,2.19-2.57h0ZM156.67,90.55c.2-.52.35-.67.8-.72l.55-.05v-1.84h-5.06v1.92l1.1.1-2.39,7.22h-.08l-2.12-6.6c-.12-.4.03-.65.4-.7l.62-.05v-1.89h-5.33v1.84l1.1.15,3.81,10.44-.5,1.25c-.5,1.22-1.05,1.87-2.02,1.87-.85,0-1.52-.27-2.14-.55l-.75,2.14c.7.42,1.94.82,3.11.82,2.94,0,4.04-2.07,5.21-5.31l3.69-10.04h0Z" />
</svg>