<?xml version="1.0" encoding="UTF-8"?>
<svg id="Full_colour" data-name="Full colour" xmlns="http://www.w3.org/2000/svg" viewBox="0 0 232 105.12">
  <defs>
    <style>
      .cls-1 {
        fill: #fff;
      }

      .cls-1,
      .cls-2,
      .cls-3 {
        stroke-width: 0px;
      }

      .cls-2 {
        fill: #f3ba0e;
      }

      .cls-3 {
        fill: #f3ba0e;
      }
    </style>
  </defs>
  <g>
    <path class="cls-2"
      d="M47.56,104.88c-1.35,0-2.71-.78-4.04-2.3l-19.75-22.69c-1.93-2.21-6.19-4.16-9.13-4.16h-5.81c-4.65,0-8.43-3.78-8.43-8.43v-25.16c0-4.17,2.62-9.38,5.97-11.86L40.4,2.28c1.8-1.33,4.05-2.03,6.44-2.03s4.64.7,6.36,1.97l34.19,28.12c3.27,2.42,5.89,7.63,5.89,11.8v25.16c0,4.65-3.78,8.43-8.43,8.43h-29.17c-2.44,0-4.42,1.98-4.42,4.42v19.54c0,4.95-3.08,5.2-3.69,5.2h0Z" />
    <path class="cls-1" d="M62.67,71.71v-13.71c0-7.08-5.74-12.82-12.82-12.82h-6.03c-7.08,0-12.82,5.74-12.82,12.82v24.08l15.54,17.85c.24.28.46.48.63.63.04-.22.06-.51.06-.89v-19.54c0-4.65,3.78-8.43,8.43-8.43h7Z" />
    <path class="cls-1" d="M69.37,50.74h-4.33c1.06,2.2,1.67,4.66,1.67,7.26v13.71h12.96v-10.67c0-5.69-4.61-10.3-10.29-10.3h0Z" />
    <path class="cls-1" d="M28.64,50.74h-4.33c-5.69,0-10.3,4.61-10.3,10.3v10.67h.63c4.11,0,9.45,2.43,12.15,5.53l.17.2v-19.44c0-2.6.61-5.06,1.67-7.26h0Z" />
    <path class="cls-1" d="M77.57,37.64c0-4.11-3.33-7.45-7.45-7.45s-7.45,3.33-7.45,7.45,3.33,7.45,7.45,7.45,7.45-3.33,7.45-7.45h0Z" />
    <path class="cls-1" d="M16.11,37.64c0,4.11,3.33,7.45,7.45,7.45s7.45-3.33,7.45-7.45-3.33-7.45-7.45-7.45-7.45,3.33-7.45,7.45h0Z" />
    <path class="cls-1" d="M46.84,39.53c5.65,0,10.22-4.58,10.22-10.22s-4.58-10.22-10.22-10.22-10.22,4.58-10.22,10.22,4.58,10.22,10.22,10.22h0Z" />
  </g>
  <path class="cls-3"
    d="M105.83,72.42c-.59,0-1.17-.07-1.51-.17-.32-.1-.35-.3-.35-.67v-1.39l-3.2.2v4.24c1.61.72,3.67.99,5.36.99,3.99,0,6.48-2.01,6.48-5.46s-2.41-4.19-4.66-4.91c-1.64-.52-2.63-.89-2.63-2.06,0-1.09.87-1.49,1.84-1.49.5,0,1.04.05,1.39.15.32.1.35.3.35.64v1.24l3.13-.2v-4.04c-1.17-.57-2.98-.99-4.96-.99-3.65,0-6.15,1.89-6.15,5.19s2.56,4.37,4.72,4.94c1.51.4,2.48.82,2.48,1.99,0,1.36-1.07,1.81-2.26,1.81h0ZM125.66,63.22c-1.99-.77-3.9-.94-4.79-.94-4.59,0-6.85,2.88-6.85,7.25,0,3.3,1.19,6.1,4.96,6.1,1.44,0,2.56-.57,3.18-1.51l.07.02.17,1.17h4.47v-2.26l-.65-.05c-.45-.03-.57-.2-.57-.72v-9.06h0ZM121.57,71.21c0,.77-.55,1.46-1.56,1.46-1.49,0-1.84-1.56-1.84-3.45,0-2.08.47-3.99,2.26-3.99.45,0,.87.07,1.14.2v5.78h0ZM127.85,65.3h1.64v6.87c0,.62-.12.77-.6.82l-.79.07v2.23h7.47v-2.31l-1.94-.12v-7.57h3.15v-2.68h-3.15v-.7c0-1.17.52-1.56,1.39-1.56.5,0,1.24.15,2.03.52l.94-2.61c-1.04-.55-2.61-.94-4.02-.94-3.75,0-4.49,2.23-4.49,4.69v.6h-1.64v2.68h0ZM143.83,62.27c-4.29,0-6.5,3.25-6.5,6.97s1.69,6.38,6.03,6.38c2.8,0,4.69-1.19,4.81-1.32l-1.09-2.75c-.79.52-1.89.99-3.15.99-1.61,0-2.36-.94-2.48-2.11,3.75.05,6.77-.84,6.77-4.37,0-2.61-1.79-3.8-4.39-3.8h0ZM144.67,66.29c0,1.19-1.04,1.79-3.28,1.71.07-1.61.92-2.78,2.21-2.78.62,0,1.07.3,1.07,1.07h0ZM149.06,65.35h1.66v5.76c0,2.28.05,4.52,4.37,4.52,1.39,0,2.63-.35,3.33-.77l-.57-2.78c-.4.22-.94.37-1.54.37-1.17,0-1.41-.4-1.41-1.76v-5.33h2.7l.2-2.73h-2.9v-2.9h-2.28c-.52,1.54-1.39,2.8-3.23,3.23l-.32,2.41h0ZM171.17,65.77c.17-.5.32-.72.87-.77l.55-.05v-2.33h-5.86v2.41l.92.07-1.76,5.81h-.07l-1.49-5.11c-.12-.45.05-.7.4-.74l.55-.05v-2.38h-6.63v2.33l1.17.15,3.77,10.12-.32.79c-.37.92-.84,1.41-1.81,1.41-.82,0-1.46-.25-2.03-.52l-.94,2.93c.82.5,2.16.94,3.5.94,3.05,0,4.37-1.71,5.73-5.46l3.47-9.55h0Z" />
  <path class="cls-3"
    d="M110.45,39.59c.32.1.35.3.35.67v1.46l3.13-.2v-4.37c-1.24-.62-3.23-1.04-5.16-1.04-3.97,0-7.99,2.18-7.99,8.71,0,5.53,2.95,8.44,8.09,8.44,1.99,0,3.8-.32,5.14-1.02v-4.54l-3.13-.2v1.61c0,.4-.1.59-.42.67-.37.12-.89.15-1.34.15-2.9,0-3.97-2.36-3.97-5.38,0-3.45,1.39-5.14,3.87-5.14.4,0,.97.05,1.44.17h0ZM115.41,46.68c0,4.54,2.11,6.58,5.83,6.58s6.25-2.13,6.25-6.97c0-5.83-3.92-6.38-5.88-6.38-2.7,0-6.2,1.44-6.2,6.77h0ZM121.44,50.23c-1.54,0-1.76-1.79-1.76-4.02s.47-3.3,1.76-3.3c1.36,0,1.76,1.14,1.76,3.75,0,2.38-.5,3.57-1.76,3.57h0ZM143.75,49.91c0,.52-.1.67-.42.69l-.5.05v2.28h6.28v-2.28l-1.22-.1v-6.4c0-2.85-1.27-4.24-3.62-4.24-1.74,0-2.93.82-3.6,2.01-.72-1.66-2.16-2.01-3.2-2.01-2.03,0-3.08.99-3.65,1.99h-.05v-1.64h-5.19v2.33l.84.07c.45.05.6.22.6.74v6.43c0,.6-.1.74-.57.79l-.84.07v2.23h6.58v-2.28l-1.07-.12v-5.43c0-1.12.6-1.94,1.51-1.94,1.07,0,1.24.7,1.24,1.81v4.94c0,.52-.1.67-.42.69l-.5.05v2.28h6.01v-2.28l-.94-.1v-5.48c0-1.12.6-1.91,1.49-1.91,1.04,0,1.24.65,1.24,1.79v4.96h0ZM165.09,49.91c0,.52-.1.67-.42.69l-.5.05v2.28h6.28v-2.28l-1.22-.1v-6.4c0-2.85-1.27-4.24-3.62-4.24-1.74,0-2.93.82-3.6,2.01-.72-1.66-2.16-2.01-3.2-2.01-2.03,0-3.08.99-3.65,1.99h-.05v-1.64h-5.19v2.33l.84.07c.45.05.59.22.59.74v6.43c0,.6-.1.74-.57.79l-.84.07v2.23h6.58v-2.28l-1.07-.12v-5.43c0-1.12.59-1.94,1.51-1.94,1.07,0,1.24.7,1.24,1.81v4.94c0,.52-.1.67-.42.69l-.5.05v2.28h6.01v-2.28l-.94-.1v-5.48c0-1.12.6-1.91,1.49-1.91,1.04,0,1.24.65,1.24,1.79v4.96h0ZM183.78,40.26h-5.24v2.36l.55.05c.45.05.6.22.6.74v4.64c0,1.19-.67,1.99-1.69,1.99s-1.32-.59-1.32-1.79v-7.99h-5.41v2.36l.67.05c.4.05.6.2.6.72v5.68c0,2.85,1.24,4.19,3.77,4.19,1.71,0,2.95-.77,3.62-1.91h.07v1.59h4.99v-2.26l-.67-.07c-.42-.05-.55-.22-.55-.77v-9.58h0ZM187.4,49.86c0,.57-.1.74-.57.77l-.84.07v2.23h6.58v-2.31l-1.04-.07v-5.43c0-1.09.59-1.96,1.64-1.96s1.34.65,1.34,1.81v5.14c-.03.37-.15.47-.42.5l-.5.05v2.28h6.28v-2.28l-1.22-.1v-6.43c0-3.05-1.44-4.22-3.75-4.22-1.94,0-3.08.99-3.67,1.96h-.05v-1.61h-5.21v2.33l.84.07c.45.05.6.22.6.74v6.45h0ZM206.23,40.26h-5.53v2.33l.84.07c.45.05.6.22.6.74v6.4c0,.62-.1.77-.57.82l-.87.07v2.23h6.85v-2.31l-1.32-.1v-10.27h0ZM201.47,36.66c0,1.24.92,2.16,2.38,2.16s2.43-.92,2.43-2.23-.99-2.11-2.43-2.11-2.38.97-2.38,2.18h0ZM208.07,42.99h1.66v5.76c0,2.28.05,4.52,4.37,4.52,1.39,0,2.63-.35,3.33-.77l-.57-2.78c-.4.22-.94.37-1.54.37-1.17,0-1.41-.4-1.41-1.76v-5.34h2.7l.2-2.73h-2.9v-2.9h-2.28c-.52,1.54-1.39,2.8-3.23,3.23l-.32,2.41h0ZM230.18,43.41c.17-.5.32-.72.87-.77l.55-.05v-2.33h-5.86v2.41l.92.07-1.76,5.81h-.07l-1.49-5.11c-.12-.45.05-.7.4-.74l.55-.05v-2.38h-6.63v2.33l1.17.15,3.77,10.12-.32.79c-.37.92-.84,1.41-1.81,1.41-.82,0-1.46-.25-2.03-.52l-.94,2.93c.82.5,2.16.94,3.5.94,3.05,0,4.37-1.71,5.73-5.46l3.47-9.55h0Z" />
  <path class="cls-3"
    d="M106.06,27.84c0,.57-.15.74-.7.77l-1.12.1v1.86h6.6v-1.96l-1.76-.07v-12.26h2.23c.52,0,.62.25.62.67v1.46l2.41-.2v-4.14h-13.57v4.14l2.38.2v-1.49c0-.42.12-.65.62-.65h2.28v11.56h0ZM119.73,17.74c-3.97,0-6.13,3.08-6.13,6.92,0,3.52,1.56,6.25,5.76,6.25,2.28,0,3.92-.97,4.32-1.27l-.87-2.06c-.62.42-1.69,1.02-3.13,1.02-2.16,0-2.98-1.44-3.1-3.1,4.22.15,7.22-.72,7.22-4.27,0-2.33-1.56-3.5-4.07-3.5h0ZM121.15,21.39c0,1.49-1.41,2.03-3.57,2.03-.32,0-.65,0-.99-.02.17-1.61,1.04-3.47,3.03-3.47.92,0,1.54.42,1.54,1.46h0ZM131.89,20.2c.32,0,.52.03.7.12.2.07.22.22.22.64v1.56l2.48-.17v-4.14c-.7-.35-1.56-.47-2.28-.47-1.99,0-3.08,1.14-3.52,2.21h-.02v-1.89h-4.07v1.89l.84.05c.42.05.57.2.57.7v7.2c0,.57-.07.77-.62.82l-.74.07v1.79h6.25v-1.86l-1.99-.1v-5.86c0-1.44.84-2.56,2.18-2.56h0ZM143.23,20.2c.32,0,.52.03.69.12.2.07.22.22.22.64v1.56l2.48-.17v-4.14c-.69-.35-1.56-.47-2.28-.47-1.99,0-3.08,1.14-3.52,2.21h-.03v-1.89h-4.07v1.89l.84.05c.42.05.57.2.57.7v7.2c0,.57-.07.77-.62.82l-.74.07v1.79h6.25v-1.86l-1.99-.1v-5.86c0-1.44.84-2.56,2.18-2.56h0ZM152.49,18.07h-4.34v1.89l.79.05c.47.05.62.2.62.74v7.15c0,.62-.1.77-.57.82l-.79.07v1.79h5.61v-1.86l-1.31-.1v-10.55h0ZM149.09,14.52c0,.99.7,1.71,1.76,1.71s1.84-.72,1.84-1.74-.77-1.66-1.81-1.66-1.79.74-1.79,1.69h0ZM154.84,20.23h1.71v6.5c0,2.01.15,4.19,3.82,4.19,1.19,0,2.36-.35,3.05-.79l-.57-2.03c-.4.22-1.02.47-1.74.47-1.04,0-1.61-.45-1.61-1.96v-6.38h3.08l.15-2.16h-3.23v-2.83h-1.61c-.45,1.46-1.07,2.78-2.78,3.05l-.27,1.94h0ZM164.22,24.32c0,4.49,2.06,6.6,5.46,6.6s5.88-2.08,5.88-6.92c0-5.71-3.65-6.25-5.48-6.25-2.58,0-5.86,1.34-5.86,6.58h0ZM169.85,28.66c-2.23,0-2.56-2.41-2.56-4.69s.74-4,2.63-4,2.53,1.69,2.53,4.42c0,2.48-.74,4.27-2.61,4.27h0ZM183.7,20.2c.32,0,.52.03.69.12.2.07.22.22.22.64v1.56l2.48-.17v-4.14c-.69-.35-1.56-.47-2.28-.47-1.99,0-3.08,1.14-3.52,2.21h-.03v-1.89h-4.07v1.89l.84.05c.42.05.57.2.57.7v7.2c0,.57-.07.77-.62.82l-.74.07v1.79h6.25v-1.86l-1.98-.1v-5.86c0-1.44.84-2.56,2.18-2.56h0ZM199.48,20.67c.2-.52.35-.67.79-.72l.55-.05v-1.84h-5.04v1.91l1.09.1-2.38,7.2h-.07l-2.11-6.58c-.12-.4.03-.65.4-.7l.62-.05v-1.89h-5.31v1.84l1.09.15,3.8,10.4-.5,1.24c-.5,1.22-1.04,1.86-2.01,1.86-.84,0-1.51-.27-2.13-.55l-.74,2.13c.7.42,1.94.82,3.1.82,2.93,0,4.02-2.06,5.19-5.29l3.67-10h0Z" />
</svg>