<?xml version="1.0" encoding="utf-8"?>
<svg id="NTGandScreenTerritoryLogo_x5F_CMYK_xA0_Image_1_" xmlns="http://www.w3.org/2000/svg" viewBox="0 0 261.8 93.3"><style>.st0{fill:#fff}</style><path class="st0" d="M115.7 37.2l-10.2-17.8v17.8H101V12.7h5.2l10.1 17.8V12.7h4.5v24.4h-5.1zM136.6 37.6c-7.2 0-12.9-5.6-12.9-12.6 0-7.1 5.6-12.7 12.9-12.7 7 0 12.6 5.7 12.6 12.6 0 7.2-5.5 12.7-12.6 12.7zm0-20.9c-4.7 0-8.3 3.6-8.3 8.3 0 4.6 3.6 8.3 8.3 8.3 4.6 0 8.1-3.5 8.1-8.2-.1-4.8-3.6-8.4-8.1-8.4zM163.2 37.2l-6.4-9.4v9.4h-4.5V12.7h7c3.3 0 5.1.5 6.7 1.8 1.7 1.4 2.6 3.5 2.6 6 0 3.8-2 6.5-6.4 7.6l6.6 9h-5.6zm-4.4-20.1h-2v7.3h2.2c3.5 0 5-1.1 5-3.7 0-2.2-.9-3.6-5.2-3.6zM178.4 17.1v20.1h-4.5V17.1h-4.5v-4.3H183v4.3h-4.6zM198 37.2V26.9h-8.7v10.3h-4.5V12.7h4.5v9.9h8.7v-9.9h4.5v24.4H198zM206.7 37.2V12.7h13.1V17h-8.6v5.8h8.2v4.3h-8.2v5.7h8.6v4.3h-13.1zM234.4 37.2l-6.4-9.4v9.4h-4.5V12.7h7c3.3 0 5.1.5 6.7 1.8 1.7 1.4 2.6 3.5 2.6 6 0 3.8-2 6.5-6.4 7.6l6.6 9h-5.6zM230 17.1h-2v7.3h2.2c3.5 0 5-1.1 5-3.7 0-2.2-.9-3.6-5.2-3.6zM256.8 37.2l-10.2-17.8v17.8H242V12.7h5.2l10.1 17.8V12.7h4.5v24.4h-5zM107.6 45.8V65h-4.3V45.8H99v-4.1h13v4.1h-4.4zM114.3 65V41.7h12.5v4.1h-8.2v5.5h7.9v4.1h-7.9v5.4h8.2V65h-12.5zM140 65l-6.1-8.9V65h-4.3V41.7h6.7c3.2 0 4.9.4 6.4 1.7 1.6 1.4 2.5 3.4 2.5 5.7 0 3.6-1.9 6.2-6.1 7.2l6.3 8.6H140zm-4.2-19.2h-1.9v7h2.1c3.3 0 4.8-1.1 4.8-3.5 0-2.1-.9-3.5-5-3.5zM157.9 65l-6.1-8.9V65h-4.3V41.7h6.7c3.2 0 4.9.4 6.4 1.7 1.6 1.4 2.5 3.4 2.5 5.7 0 3.6-1.9 6.2-6.1 7.2l6.3 8.6h-5.4zm-4.2-19.2h-1.9v7h2.1c3.3 0 4.8-1.1 4.8-3.5-.1-2.1-.9-3.5-5-3.5zM165.3 65V41.7h4.3V65h-4.3zM180.4 45.8V65h-4.3V45.8h-4.3v-4.1h13v4.1h-4.4zM196.8 65.4c-6.8 0-12.3-5.3-12.3-12.1s5.4-12.1 12.3-12.1c6.7 0 12 5.4 12 12 0 6.9-5.2 12.2-12 12.2zm0-20c-4.5 0-7.9 3.4-7.9 7.9 0 4.4 3.5 7.9 7.9 7.9s7.7-3.4 7.7-7.9c0-4.4-3.4-7.9-7.7-7.9zM221.6 65l-6.1-8.9V65h-4.3V41.7h6.7c3.2 0 4.9.4 6.4 1.7 1.6 1.4 2.5 3.4 2.5 5.7 0 3.6-1.9 6.2-6.1 7.2l6.3 8.6h-5.4zm-4.2-19.2h-1.9v7h2.1c3.3 0 4.8-1.1 4.8-3.5-.1-2.1-.9-3.5-5-3.5zM238.4 56.4V65h-4.3v-8.6l-7.7-14.7h4.7l5.2 10.7 5.1-10.7h4.7l-7.7 14.7z"/><g><path class="st0" d="M107.7 83.9c-4.6 0-8.1-3.4-8.1-7.8 0-4.3 3.5-7.7 7.9-7.7 3.3 0 6.1 1.7 7.1 4.2h-1.7c-1-1.8-3-2.9-5.3-2.9-3.7 0-6.5 2.8-6.5 6.4 0 3.6 2.9 6.4 6.6 6.4 3 0 5.5-2.1 6-4.4h-8.4v-1.4h10.2c-.2 3.8-3.4 7.2-7.8 7.2zM125.2 83.9c-4.4 0-7.9-3.5-7.9-7.8 0-4.1 3.6-7.6 7.9-7.6 4.3 0 7.9 3.5 7.9 7.7-.1 4.2-3.6 7.7-7.9 7.7zm0-14.1c-3.5 0-6.4 2.9-6.4 6.3 0 3.5 2.9 6.4 6.4 6.4 3.5 0 6.4-2.9 6.4-6.3-.1-3.5-3-6.4-6.4-6.4zM140.9 83.6h-1.5l-6.1-14.9h1.6l5.3 13.1 5.3-13.1h1.6l-6.2 14.9zM148.9 83.6V68.7h8.2V70h-6.7v5.4h6.5v1.4h-6.5v5.5h6.7v1.4h-8.2zM165.4 78l4.2 5.6h-1.9l-5-6.8c4.2 0 5.6-.7 5.6-3.4 0-2.5-1.5-3.4-5-3.4h-2.1v13.6h-1.5V68.7h3.7c4.7 0 6.4 1.7 6.4 4.8 0 2.6-1.5 4.2-4.4 4.5zM182.4 83.6l-8.9-13.1v13.1H172V68.7h2l8.4 12.4V68.7h1.5v14.9h-1.5zM201 83.6V70.3l-5.6 13.3H194l-5.6-13.3v13.3h-1.5V68.7h2.3l5.4 12.7 5.4-12.7h2.3v14.9H201zM205.5 83.6V68.7h8.2V70H207v5.4h6.5v1.4H207v5.5h6.7v1.4h-8.2zM226.8 83.6l-8.9-13.1v13.1h-1.5V68.7h2l8.4 12.4V68.7h1.5v14.9h-1.5zM234.8 70v13.6h-1.5V70h-3.4v-1.4h8.3V70h-3.4z"/></g><path class="st0" d="M39 .6c-4 .6-7.9 7-6.2 11.8C35.1 19 40 30 46.8 30.2c6.9-.2 11.7-11.1 14-17.8C62.5 7.6 58.5 1.5 54.6.6 50.9-.2 44.2-.2 39 .6M6.1 24.1c-2 3.6.4 10.7 5.1 12.3 6.5 2.3 18 5.2 22.4-.1 4.2-5.6-1.2-16.3-4.8-22.3-2.6-4.3-9.8-5-12.9-2.4-3.1 2.5-7.2 7.8-9.8 12.5M3.5 65.1c1.5 3.8 8.4 6.3 12.6 3.6 5.8-3.8 15.2-11.1 13.8-18-1.7-6.8-13.2-9.2-20.1-10.1C4.9 40 0 45.3 0 49.4c0 4 1.5 10.7 3.5 15.7M33.2 92.7c3.9 1.2 10.1-2.8 10.6-7.9.7-7 1-19.1-5.1-22.3-6.3-2.9-15.3 4.8-20.2 9.8-3.5 3.6-2.6 10.9.6 13.4 3 2.5 9.1 5.4 14.1 7M72.8 86.2c3.3-2.3 4.1-9.8.6-13.4-4.9-5-14-12.7-20.2-9.8-6.1 3.2-5.8 15.2-5.1 22.3.5 5.1 6.7 8.9 10.6 7.9 3.8-1 9.8-4 14.1-7M92.5 50.4c.3-4.1-4.9-9.4-9.9-8.8-6.9.8-18.4 3.3-20.1 10.1-1.4 6.9 8 14.2 13.8 18 4.2 2.7 10.9.2 12.6-3.5 1.8-3.8 3.3-10.4 3.6-15.8M77.5 12.3c-3-2.8-10.3-1.9-12.9 2.4-3.6 6-9 16.7-4.8 22.3 4.4 5.4 15.8 2.4 22.4.1 4.7-1.6 6.9-8.6 5.2-12.3-1.9-3.5-6-8.9-9.9-12.5"/><path class="st0" d="M57.1 25.4c-.5 3-4.4 10.7-1.3 14.7 3.3 4.3 11.3 1.8 14.4 2.1l-.4.1c-2.6 1.5-10.9 3.2-12 8.1-1.2 5.3 5.7 10.2 7.4 12.8l-.4-.2c-2.7-1.2-9.3-6.8-13.7-4.6-4.8 2.4-4.2 10.8-5.2 13.8v-.4c-.8-2.9-.6-11.6-5-13.8-4.9-2.4-11 3.3-13.9 4.4l.3-.3c1.7-2.5 8.5-7.7 7.4-12.6-1.2-5.3-9.4-6.6-12.1-8.2l.4.1c3-.1 11.2 2 14.3-2 3.3-4.3-.8-11.7-1.2-14.8l.2.4c2 2.3 5.5 10.2 10.4 10.2 5.3 0 8.4-7.9 10.5-10.2l-.1.4z"/></svg>